<svg width="303" height="266" viewBox="0 0 303 266" fill="none" xmlns="http://www.w3.org/2000/svg">
<path d="M285.033 123.683H255.69C240.598 -11.9343 48.738 -11.837 33.739 123.683C19.533 123.33 0.885 121.572 0 141.519V200.757C0.943 220.752 19.503 218.933 33.819 218.592L61.114 218.593C70.339 218.593 79.07 223.008 84.544 230.611C90.019 238.4 99.935 244.862 108.987 250.679C127.896 263.957 174.462 273.565 198.464 254.923C203.298 252.385 202.289 245.025 196.96 243.946C184.769 241.521 173.185 239.008 156.622 231.182C156.902 230.999 157.183 230.815 157.448 230.611C162.974 234.352 176.35 229.001 181.923 227.692C191.4 225.466 198.332 223.666 204.236 222.069C211.726 220.044 219.399 218.844 227.14 218.566C245.976 217.89 269.723 219.162 285.032 218.593C294.651 218.594 302.449 210.609 302.449 200.759V141.52C302.451 131.668 294.653 123.683 285.033 123.683Z" fill="#EDEDED"/>
<path d="M67.9179 69.5986C71.9659 76.7533 77.0479 57.5656 77.0479 57.5656L82.4469 48.668L78.2229 43.12C75.7979 44.8792 73.4399 46.747 71.1539 48.7264C70.6669 49.6634 64.0169 62.703 67.9179 69.5986Z" fill="#424242"/>
<path d="M41.3401 135.164C41.3401 76.7021 87.6221 29.3083 144.715 29.3083C201.808 29.3083 248.09 76.7021 248.09 135.164" fill="#424242"/>
<path d="M144.963 37.3272L144.463 133.014L143.963 37.3272H144.963Z" fill="black"/>
<path d="M136.817 37.6467L144.463 133.014L135.821 37.7358L136.817 37.6467Z" fill="black"/>
<path d="M128.729 38.6922L144.463 133.014L127.744 38.8694L128.729 38.6922Z" fill="black"/>
<path d="M120.761 40.4556L144.463 133.014L119.795 40.7198L120.761 40.4556Z" fill="black"/>
<path d="M112.973 42.9224L144.463 133.014L112.034 43.2726L112.973 42.9224Z" fill="black"/>
<path d="M105.425 46.0763L144.463 133.014L104.519 46.5084L105.425 46.0763Z" fill="black"/>
<path d="M98.1741 49.8907L144.463 133.014L97.3081 50.4027L98.1741 49.8907Z" fill="black"/>
<path d="M91.2751 54.3379L144.463 133.014L90.4561 54.9257L91.2751 54.3379Z" fill="black"/>
<path d="M84.7821 59.3842L144.463 133.014L84.0151 60.0426L84.7821 59.3842Z" fill="black"/>
<path d="M78.7422 64.9916L144.463 133.014L78.0352 65.7156L78.7422 64.9916Z" fill="black"/>
<path d="M73.2021 71.1151L144.463 133.014L72.5601 71.8995L73.2021 71.1151Z" fill="black"/>
<path d="M68.2051 77.7107L144.463 133.014L67.6321 78.5494L68.2051 77.7107Z" fill="black"/>
<path d="M63.7881 84.7272L144.463 133.014L63.2881 85.614L63.7881 84.7272Z" fill="black"/>
<path d="M59.985 92.1112L144.463 133.014L59.563 93.039L59.985 92.1112Z" fill="black"/>
<path d="M56.8262 99.8056L144.463 133.014L56.4832 100.768L56.8262 99.8056Z" fill="black"/>
<path d="M54.333 107.754L144.463 133.014L54.074 108.743L54.333 107.754Z" fill="black"/>
<path d="M52.526 115.894L144.463 133.014L52.3521 116.902L52.526 115.894Z" fill="black"/>
<path d="M51.4181 124.164L144.463 133.014L51.3311 125.184L51.4181 124.164Z" fill="black"/>
<path d="M237.595 125.184L144.463 133.014L237.508 124.164L237.595 125.184Z" fill="black"/>
<path d="M236.574 116.902L144.463 133.014L236.401 115.894L236.574 116.902Z" fill="black"/>
<path d="M234.853 108.743L144.463 133.014L234.594 107.754L234.853 108.743Z" fill="black"/>
<path d="M232.443 100.768L144.463 133.014L232.101 99.8056L232.443 100.768Z" fill="black"/>
<path d="M229.363 93.039L144.463 133.014L228.941 92.1112L229.363 93.039Z" fill="black"/>
<path d="M225.638 85.614L144.463 133.014L225.138 84.7272L225.638 85.614Z" fill="black"/>
<path d="M221.295 78.5494L144.463 133.014L220.721 77.7107L221.295 78.5494Z" fill="black"/>
<path d="M216.367 71.8995L144.463 133.014L215.724 71.1151L216.367 71.8995Z" fill="black"/>
<path d="M210.892 65.7156L144.463 133.014L210.185 64.9916L210.892 65.7156Z" fill="black"/>
<path d="M204.911 60.0426L144.463 133.014L204.145 59.3842L204.911 60.0426Z" fill="black"/>
<path d="M198.47 54.9257L144.463 133.014L197.651 54.3379L198.47 54.9257Z" fill="black"/>
<path d="M191.618 50.4027L144.463 133.014L190.752 49.8907L191.618 50.4027Z" fill="black"/>
<path d="M184.407 46.5084L144.463 133.014L183.501 46.0763L184.407 46.5084Z" fill="black"/>
<path d="M176.893 43.2726L144.463 133.014L175.953 42.9224L176.893 43.2726Z" fill="black"/>
<path d="M169.131 40.7198L144.463 133.014L168.165 40.4556L169.131 40.7198Z" fill="black"/>
<path d="M161.182 38.8694L144.463 133.014L160.197 38.6922L161.182 38.8694Z" fill="black"/>
<path d="M153.105 37.7358L144.463 133.014L152.109 37.6467L153.105 37.7358Z" fill="black"/>
<path d="M220.297 121.053C221.832 120.407 225.968 108.324 227.902 102.805C229.836 97.2855 233.924 86.126 233.413 85.7942C232.302 85.0754 227.563 97.7945 224.893 105.116C222.224 112.437 220.519 113.499 220.103 112.181C219.687 110.864 232.476 82.6403 230.862 82.1795C229.723 81.8549 223.445 98.1477 220.348 104.96C217.25 111.773 216.935 110.987 216.315 110.559C215.695 110.131 228.534 81.264 227.226 80.7039C226.437 80.366 219.794 94.6313 216.493 102.334C213.191 110.035 213.203 109.878 212.177 109.276C211.151 108.673 225.723 78.6774 222.759 81.3961C220.547 83.4257 207.086 112.793 207.884 115.902C208.491 118.266 209.176 121.417 209.468 122.79C209.564 123.239 209.522 123.701 209.347 124.125C208.729 125.622 207.091 129.572 205.055 134.384C204.947 134.345 204.819 134.299 204.723 134.264C204.237 134.093 203.71 134.304 203.467 134.768C200.497 140.441 187.102 168.792 184.11 183.107C183.426 186.379 183.345 188.95 184.943 189.634C186.17 190.159 187.278 189.616 189.242 186.428C197.111 173.654 207.118 142.889 209.033 137.087C209.2 136.583 208.983 136.032 208.518 135.794C208.363 135.715 208.171 135.631 207.991 135.548C210.655 129.699 212.755 125.196 212.857 124.948C213.136 124.255 218.762 121.699 220.297 121.053Z" fill="#EDEDED"/>
<path d="M207.762 77.6411L179.392 146.235L179.418 146.244C179.159 146.869 172.034 164.046 165.455 179.585C163.335 184.594 170.663 185.223 172.753 180.759C174.843 176.295 175.608 171.282 178.28 166.365C180.933 161.483 183.584 157.053 186.006 148.683L187.444 149.216C187.911 149.389 188.543 148.915 188.873 148.142C193.013 138.464 217.072 81.1432 207.762 77.6411Z" fill="#EDEDED"/>
<path d="M286.35 210.237H16.1021C11.7171 210.237 8.16211 206.596 8.16211 202.105V140.171C8.16211 135.68 11.7171 132.04 16.1021 132.04H286.35C290.735 132.04 294.29 135.68 294.29 140.171V202.105C294.29 206.596 290.735 210.237 286.35 210.237Z" fill="#424242"/>
<path d="M93.186 202.139C90.725 199.562 87.016 194.847 87.103 189.883C87.103 189.883 86.016 188.499 84.772 190.276C83.659 191.864 85.784 198.272 92.675 202.689C87.481 208.402 91.362 214.351 91.362 214.351L109.305 202.935C109.305 202.935 99.013 196.513 93.186 202.139Z" fill="#91991A"/>
<path d="M188.525 250.755C188.525 250.755 145.736 242.141 131.306 222.166C116.876 202.192 113.92 198.468 104.843 201.01C95.766 203.55 84.763 210.058 88.24 221.234C91.718 232.409 145.257 273.488 188.525 250.755Z" fill="#C15F34"/>
<path d="M111.273 204.817C111.542 207.721 112.648 210.332 113.894 212.848C115.249 215.299 116.763 217.704 118.849 219.665C120.934 221.635 123.534 223.123 125.572 225.027C127.695 226.867 129.467 229.005 131.266 231.204C132.975 233.494 135.031 235.493 137.211 237.345C139.447 239.128 141.657 241.002 144.227 242.349C149.262 245.181 154.922 247.013 160.788 247.511L160.993 247C156.5 243.226 151.885 240.473 147.433 237.388C145.123 235.992 142.82 234.595 140.46 233.226C139.282 232.538 138.192 231.737 136.987 231.062C135.793 230.372 134.534 229.741 133.366 228.99C130.915 227.614 128.742 225.874 126.926 223.831C125.166 221.729 124.022 219.164 122.62 216.876C121.2 214.599 119.424 212.606 117.653 210.561C115.842 208.541 114.018 206.528 111.798 204.595L111.273 204.817Z" fill="#EDEDED"/>
<path d="M88.854 215.261C103.926 240.165 133.499 251.123 160.947 252.825C164.479 253.089 169.407 253.18 172.982 253.201L166.955 253.4C137.438 253.834 104.075 242.989 88.854 215.261Z" fill="#424242"/>
<path d="M111.033 108.857C111.033 108.857 109.063 94.3661 101.065 85.6733C101.065 85.6733 58.0761 84.9873 77.0191 50.2942C77.0191 50.2942 59.2021 13.7046 94.8341 2.56756C121.756 -5.84665 132.668 9.11399 132.668 9.11399C132.668 9.11399 161.494 4.03291 167.246 22.3502C171.067 34.5174 155.344 38.1905 155.344 38.1905C155.344 38.1905 167.371 65.2445 175.394 90.7094C175.394 90.7094 127.848 116.682 111.033 108.857Z" fill="#EDEDED"/>
<path d="M132.669 9.11298C139.22 12.1133 141.783 20.4876 140.773 27.3402C140.589 28.3314 140.375 29.3124 140.092 30.2688C139.933 29.2643 139.883 28.2853 139.792 27.3156C139.129 20.6422 137.378 14.1654 132.669 9.11298Z" fill="#424242"/>
<path d="M92.2971 61.4844C85.9801 63.5089 79.8651 58.0141 76.9211 52.7415C75.5321 49.9286 75.5131 49.8395 77.7031 52.1322C81.8761 56.2426 86.2641 60.7523 92.2971 61.4844Z" fill="#424242"/>
<path d="M108.221 97.9521C108.221 97.9521 98.3021 97.0367 98.4041 103.992C98.4271 105.543 101.333 124.746 103.201 127.08C109.249 134.636 141.206 133.376 172.953 123.554C204.7 113.732 184.404 80.4878 181.876 80.4868C179.348 80.4858 172.572 81.8876 172.572 81.8876L108.221 97.9521Z" fill="#EDEDED"/>
<path d="M172.572 81.8866C154.403 94.8791 130.192 101.103 108.221 97.9521C130.593 98.1365 152.741 92.4594 172.572 81.8866Z" fill="#424242"/>
<path d="M140.914 52.7446C131.822 65.6654 117.86 81.2056 102.197 84.8941L101.981 82.8881C116.307 82.0351 131.773 76.2792 139.606 63.2242C132.829 77.4557 116.748 84.0165 102.021 84.9135C100.804 84.9617 100.597 83.1338 101.805 82.9075C105.741 82.0197 109.538 80.3311 113.062 78.1592C123.747 71.5534 132.708 62.3128 140.914 52.7446Z" fill="#424242"/>
<path d="M103.201 124.645C105.599 118.475 108.121 112.36 110.575 106.216C110.699 105.894 111.119 105.801 111.363 106.038L127.74 120.369L126.536 120.52C128.147 118.024 129.819 115.571 131.457 113.095L136.396 105.682C136.692 105.235 137.303 105.134 137.721 105.464C143.101 109.625 148.536 113.714 153.871 117.936L152.396 118.314L160.669 100.108C160.872 99.6499 161.401 99.4492 161.846 99.6612C161.849 99.6622 169.461 103.331 169.465 103.332L177.047 107.076L176.03 107.615L177.956 97.6644C178.604 94.3415 179.229 91.0135 179.913 87.6968C179.962 87.4613 180.188 87.3097 180.418 87.3599C183.979 91.6689 187.2 96.4356 190.59 100.942C187.018 96.6865 183.524 92.3662 179.996 88.0746L180.757 87.8791C179.896 93.6585 178.386 102.024 177.455 107.884C177.388 108.283 177.018 108.553 176.628 108.484C172.67 106.768 165.013 103.141 161.103 101.311L162.283 100.866L154.17 119.149C153.922 119.726 153.179 119.916 152.694 119.528C147.281 115.41 141.968 111.159 136.601 106.98L137.926 106.763C134.983 111.092 130.798 117.24 127.858 121.489C127.583 121.885 127.02 121.944 126.67 121.617L110.704 106.807L111.492 106.628C108.724 112.631 106.024 118.666 103.201 124.645Z" fill="#C15F34"/>
<path d="M107.527 128.74L106.333 134.281" stroke="#EDEDED" stroke-miterlimit="10"/>
<path d="M121.434 131.444L121.482 137.118" stroke="#EDEDED" stroke-miterlimit="10"/>
<path d="M136.417 130.329L137.033 135.968" stroke="#EDEDED" stroke-miterlimit="10"/>
<path d="M152.388 127.58L153.759 133.077" stroke="#EDEDED" stroke-miterlimit="10"/>
<path d="M166.754 124.893L169.37 129.895" stroke="#EDEDED" stroke-miterlimit="10"/>
<path d="M180.616 118.933L183.232 123.935" stroke="#EDEDED" stroke-miterlimit="10"/>
<path d="M187.867 110.919L192.256 114.384" stroke="#EDEDED" stroke-miterlimit="10"/>
<path d="M109.898 134.982C110.228 136.818 108.897 138.58 106.918 138.914C104.939 139.248 103.075 138.012 102.764 136.156C102.452 134.299 103.795 132.543 105.756 132.229C107.716 131.914 109.567 133.145 109.898 134.982Z" fill="#C15F34"/>
<path d="M124.917 138.106C125.287 139.898 123.999 141.652 122.033 142.021C120.067 142.39 118.181 141.217 117.828 139.406C117.475 137.593 118.775 135.844 120.724 135.496C122.673 135.147 124.547 136.314 124.917 138.106Z" fill="#91991A"/>
<path d="M140.837 137.329C141.245 139.076 139.999 140.822 138.046 141.224C136.093 141.627 134.186 140.519 133.795 138.751C133.403 136.984 134.661 135.243 136.597 134.86C138.533 134.478 140.428 135.582 140.837 137.329Z" fill="#C15F34"/>
<path d="M157.566 134.661C158.014 136.358 156.818 138.089 154.886 138.523C152.954 138.957 151.032 137.914 150.6 136.195C150.168 134.477 151.377 132.751 153.292 132.337C155.207 131.923 157.117 132.963 157.566 134.661Z" fill="#91991A"/>
<path d="M172.96 130.336C173.443 131.989 172.289 133.705 170.375 134.167C168.462 134.629 166.526 133.644 166.06 131.969C165.593 130.295 166.758 128.583 168.656 128.143C170.553 127.702 172.477 128.683 172.96 130.336Z" fill="#C15F34"/>
<path d="M187.546 124.826C188.062 126.433 186.956 128.128 185.067 128.612C183.178 129.095 181.236 128.165 180.735 126.537C180.234 124.909 181.352 123.216 183.225 122.754C185.099 122.293 187.03 123.219 187.546 124.826Z" fill="#91991A"/>
<path d="M196.928 114.35C197.468 115.922 196.398 117.6 194.531 118.095C192.664 118.591 190.72 117.699 190.194 116.106C189.669 114.512 190.75 112.838 192.602 112.364C194.454 111.89 196.387 112.779 196.928 114.35Z" fill="#C15F34"/>
<path d="M268.746 189.603C268.617 189.04 268.411 188.506 268.133 188.015C268.227 187.826 268.311 187.629 268.384 187.424C268.743 186.411 268.807 185.327 268.569 184.284C268.153 182.467 266.901 181.054 265.131 180.404C264.398 180.136 263.626 180 262.839 180C262.281 180 261.71 180.07 261.139 180.206C259.991 180.482 258.879 181.01 257.832 181.776C257.236 182.213 256.713 182.705 256.254 183.24C255.297 182.508 254.146 182.106 252.929 182.106C252.458 182.106 251.973 182.166 251.488 182.281C249.923 182.657 248.507 183.482 247.28 184.732C247.083 184.933 246.898 185.147 246.713 185.362C245.889 184.58 244.806 184.122 243.577 184.122C243.168 184.122 242.745 184.174 242.322 184.275C240.935 184.608 239.616 185.458 238.223 186.947C237.741 186.754 237.218 186.651 236.668 186.651C236.321 186.651 235.967 186.694 235.614 186.778C233.585 187.266 232.279 189.115 232.402 191.167C232.381 191.308 232.341 191.547 232.269 191.923C231.351 189.891 229.551 188.675 227.326 188.675C226.82 188.675 226.291 188.741 225.755 188.869C224.429 189.187 223.162 189.855 221.988 190.854C221.357 191.392 220.761 192.01 220.198 192.688C219.788 191.967 219.264 191.335 218.632 190.82C217.608 189.989 216.372 189.549 215.059 189.549C214.575 189.549 214.079 189.609 213.584 189.728C212.517 189.984 211.493 190.492 210.526 191.232C209.942 189.406 208.368 188.198 206.478 188.198C206.116 188.198 205.745 188.243 205.383 188.33C204.621 188.512 203.913 188.89 203.268 189.463C202.751 189.925 202.302 190.532 201.819 191.427C201.617 191.783 201.436 192.203 201.242 192.764C201.08 193.231 200.943 193.69 200.839 194.115C200.706 194.648 200.576 195.329 200.654 196.078C200.062 196.712 199.712 197.382 199.542 197.708C199.246 198.277 198.972 198.912 198.712 199.616C198.692 199.38 198.653 199.147 198.599 198.91C198.144 196.922 196.518 195.586 194.552 195.586C194.21 195.586 193.861 195.628 193.519 195.711C192.003 196.075 190.837 197.194 190.383 198.686C190.322 198.789 190.243 198.918 190.138 199.081C189.264 198.132 188.044 197.252 186.442 197.252C186.118 197.252 185.794 197.29 185.478 197.366C184.345 197.638 183.447 198.305 182.883 199.191C182.254 198.91 181.557 198.757 180.813 198.757C180.348 198.757 179.862 198.816 179.37 198.935C178.075 199.245 176.87 199.929 175.787 200.967C174.963 201.758 174.213 202.686 173.575 203.699C173.167 204.335 172.797 204.995 172.475 205.656C172.317 205.981 172.172 206.308 172.039 206.63L172.46 204.612C172.67 203.647 172.778 202.781 172.79 201.963C172.803 201.09 172.733 200.336 172.578 199.659C172.041 197.313 170.28 195.797 168.091 195.797C167.722 195.797 167.347 195.842 166.971 195.932C166.014 196.163 165.044 196.691 163.919 197.595C163.201 198.172 162.512 198.756 161.86 199.34C160.424 200.636 159.031 202.094 157.686 203.709C157.641 203.249 157.575 202.833 157.489 202.456C156.733 199.154 154.409 197.977 152.485 197.977C152.077 197.977 151.659 198.028 151.243 198.128C149.723 198.492 148.241 199.484 146.618 201.27C145.971 198.723 144.043 197.815 142.567 197.815C142.256 197.815 141.943 197.851 141.642 197.924C140.87 198.108 139.773 198.604 138.926 199.914C138.021 201.313 138.054 202.58 138.241 203.4C138.42 204.181 138.593 206.186 137.76 210.795C137.512 212.071 137.197 213.544 136.822 215.175C136.453 216.787 135.988 218.608 135.429 220.633L134.401 224.541C134.276 225.026 134.187 225.404 134.131 225.671C133.964 226.462 133.957 227.171 134.11 227.847C134.58 229.9 136.251 231.278 138.27 231.278C138.625 231.278 138.989 231.234 139.348 231.148C140.102 230.968 141.932 230.273 142.639 227.728C143.058 226.21 143.467 224.86 143.855 223.716C144.24 222.579 144.634 221.522 145.025 220.572C145.412 219.632 145.836 218.697 146.286 217.79C146.743 216.867 147.273 215.864 147.884 214.766C147.97 214.607 148.058 214.446 148.149 214.285L147.866 216.547C147.754 217.433 147.688 218.311 147.67 219.152C147.647 220.196 147.717 221.061 147.885 221.796C148.353 223.836 150.003 225.208 151.991 225.208C152.331 225.208 152.677 225.166 153.021 225.084C154.276 224.783 155.292 224.019 155.883 222.933C155.97 222.774 156.125 222.478 156.376 221.986C157.06 220.595 157.697 219.337 158.269 218.247C158.823 217.193 159.411 216.151 160.016 215.153C160.561 214.254 161.202 213.278 161.933 212.237C161.676 213.71 161.499 214.972 161.396 216.062C161.219 217.927 161.248 219.228 161.489 220.281C162.069 222.816 163.968 224.454 166.328 224.454C166.743 224.454 167.17 224.402 167.595 224.3C168.82 224.006 169.954 223.339 170.966 222.313C171.611 221.657 172.218 220.94 172.77 220.179L172.849 220.066C173.052 219.765 173.27 219.42 173.503 219.039C173.594 219.118 173.683 219.199 173.778 219.273C174.88 220.13 176.193 220.582 177.577 220.582C178.103 220.582 178.644 220.517 179.183 220.388C180.327 220.113 181.475 219.625 182.607 218.954C183.106 219.166 183.648 219.293 184.225 219.293C184.57 219.293 184.922 219.25 185.267 219.167C186.541 218.863 187.589 218.003 188.132 216.834C188.357 216.397 188.631 215.911 188.947 215.388C189.189 214.99 189.47 214.561 189.793 214.1C190.186 214.474 190.597 214.804 191.024 215.087C192.056 215.774 193.235 216.138 194.433 216.138C194.921 216.138 195.416 216.079 195.907 215.961C196.754 215.757 197.608 215.368 198.448 214.802C198.831 214.544 199.205 214.252 199.573 213.946C200.277 214.318 201.064 214.511 201.915 214.511C202.417 214.511 202.928 214.447 203.477 214.315C204.782 214.002 206.048 213.329 207.239 212.313C207.635 211.976 208.011 211.628 208.373 211.275C209.411 211.874 210.559 212.194 211.803 212.194C212.431 212.194 213.083 212.114 213.741 211.956C215.112 211.627 216.471 211.033 217.778 210.193C218.227 209.904 218.654 209.578 219.07 209.236C219.778 209.597 220.576 209.795 221.435 209.795C221.926 209.795 222.438 209.732 222.956 209.607C224.226 209.303 225.435 208.687 226.576 207.769C227.124 207.976 227.717 208.085 228.342 208.085C228.788 208.085 229.25 208.029 229.714 207.917C230.619 207.7 231.447 207.368 232.193 206.936C232.734 207.197 233.335 207.352 233.979 207.352C234.327 207.352 234.682 207.309 235.032 207.225C236.433 206.889 237.536 205.91 238.071 204.531L239.377 201.324C239.738 201.911 240.211 202.41 240.772 202.789C241.523 203.297 242.417 203.565 243.357 203.565C243.778 203.565 244.215 203.512 244.655 203.406C245.111 203.296 246.271 203.015 247.257 202.142C247.925 202.403 248.655 202.542 249.438 202.542C249.98 202.542 250.545 202.473 251.118 202.335C252.519 202 253.784 201.326 254.887 200.332C255.773 201.199 256.981 201.71 258.37 201.71C258.903 201.71 259.452 201.64 260.046 201.498C262.707 200.859 265.084 199.045 267.094 196.131C268.667 193.885 269.224 191.687 268.746 189.603Z" fill="#424242"/>
<path d="M21.4322 201.64L30.3644 152.153C30.4124 151.96 30.5325 151.864 30.7246 151.864H41.1695C41.3616 151.864 41.4816 151.96 41.5297 152.153L50.1017 201.64C50.1497 201.88 50.0537 202 49.8136 202H41.8178C41.6257 202 41.5057 201.88 41.4576 201.64L40.6653 196.381H30.8686L30.0763 201.64C30.0282 201.88 29.9082 202 29.7161 202H21.7203C21.5282 202 21.4322 201.88 21.4322 201.64ZM32.3093 188.674H39.2246L36.2712 168.432L35.839 165.767L35.5508 168.432L32.3093 188.674ZM55.2707 202C54.8865 202 54.6944 201.832 54.6944 201.496L54.6224 152.441C54.6224 152.056 54.8145 151.864 55.1987 151.864H61.6817L73.8554 180.246L73.4953 152.441C73.4953 152.056 73.7114 151.864 74.1436 151.864H81.2749C81.5631 151.864 81.7071 152.056 81.7071 152.441L81.7792 201.568C81.7792 201.856 81.6591 202 81.419 202H75.08L62.6181 175.492L63.1224 201.424C63.1224 201.808 62.9063 202 62.4741 202H55.2707ZM95.2399 202C95.0478 202 94.9518 201.88 94.9518 201.64V160.581H85.5874C85.3473 160.581 85.2272 160.46 85.2272 160.22L85.2993 152.153C85.2993 151.96 85.3953 151.864 85.5874 151.864H112.96C113.2 151.864 113.32 151.96 113.32 152.153V160.22C113.32 160.46 113.224 160.581 113.032 160.581H103.596L103.668 201.64C103.668 201.88 103.572 202 103.38 202H95.2399ZM129.501 202.72C126.908 202.72 124.531 202.072 122.37 200.775C120.257 199.431 118.552 197.678 117.255 195.517C115.959 193.308 115.31 190.883 115.31 188.242L115.382 165.407C115.382 162.766 116.007 160.364 117.255 158.203C118.552 156.042 120.281 154.314 122.442 153.017C124.603 151.72 126.956 151.072 129.501 151.072C132.094 151.072 134.447 151.72 136.56 153.017C138.673 154.314 140.354 156.042 141.603 158.203C142.899 160.364 143.548 162.766 143.548 165.407L143.62 188.242C143.62 190.883 142.971 193.308 141.675 195.517C140.426 197.678 138.721 199.431 136.56 200.775C134.447 202.072 132.094 202.72 129.501 202.72ZM129.501 194.004C130.942 194.004 132.19 193.428 133.247 192.275C134.351 191.075 134.904 189.73 134.904 188.242L134.832 165.407C134.832 163.822 134.327 162.477 133.319 161.373C132.31 160.268 131.038 159.716 129.501 159.716C128.012 159.716 126.74 160.268 125.683 161.373C124.627 162.429 124.099 163.774 124.099 165.407V188.242C124.099 189.826 124.627 191.195 125.683 192.347C126.74 193.452 128.012 194.004 129.501 194.004ZM160.91 202.72C158.221 202.72 155.796 202.096 153.635 200.847C151.522 199.551 149.841 197.798 148.592 195.589C147.392 193.332 146.791 190.811 146.791 188.025V184.712C146.791 184.52 146.887 184.424 147.08 184.424H155.219C155.411 184.424 155.508 184.544 155.508 184.784V188.025C155.508 189.802 156.012 191.243 157.02 192.347C158.029 193.452 159.325 194.004 160.91 194.004C162.351 194.004 163.599 193.404 164.656 192.203C165.712 191.003 166.241 189.61 166.241 188.025V152.225C166.241 152.032 166.337 151.936 166.529 151.936H174.597C174.789 151.936 174.885 152.056 174.885 152.297L174.957 188.025C174.957 190.667 174.308 193.116 173.012 195.373C171.763 197.582 170.082 199.359 167.969 200.703C165.856 202.048 163.503 202.72 160.91 202.72ZM180.76 202C180.52 202 180.4 201.88 180.4 201.64L180.472 152.153C180.472 151.96 180.568 151.864 180.76 151.864H188.828C189.02 151.864 189.116 151.96 189.116 152.153L189.188 201.64C189.188 201.88 189.092 202 188.9 202H180.76ZM202.728 202C202.536 202 202.44 201.88 202.44 201.64V160.581H193.075C192.835 160.581 192.715 160.46 192.715 160.22L192.787 152.153C192.787 151.96 192.883 151.864 193.075 151.864H220.448C220.688 151.864 220.809 151.96 220.809 152.153V160.22C220.809 160.46 220.712 160.581 220.52 160.581H211.084L211.156 201.64C211.156 201.88 211.06 202 210.868 202H202.728ZM236.989 202.72C234.396 202.72 232.019 202.072 229.858 200.775C227.745 199.431 226.04 197.678 224.743 195.517C223.447 193.308 222.798 190.883 222.798 188.242L222.87 165.407C222.87 162.766 223.495 160.364 224.743 158.203C226.04 156.042 227.769 154.314 229.93 153.017C232.091 151.72 234.444 151.072 236.989 151.072C239.582 151.072 241.935 151.72 244.048 153.017C246.161 154.314 247.842 156.042 249.091 158.203C250.387 160.364 251.036 162.766 251.036 165.407L251.108 188.242C251.108 190.883 250.459 193.308 249.163 195.517C247.914 197.678 246.209 199.431 244.048 200.775C241.935 202.072 239.582 202.72 236.989 202.72ZM236.989 194.004C238.43 194.004 239.678 193.428 240.735 192.275C241.839 191.075 242.392 189.73 242.392 188.242L242.32 165.407C242.32 163.822 241.815 162.477 240.807 161.373C239.798 160.268 238.526 159.716 236.989 159.716C235.5 159.716 234.228 160.268 233.171 161.373C232.115 162.429 231.587 163.774 231.587 165.407V188.242C231.587 189.826 232.115 191.195 233.171 192.347C234.228 193.452 235.5 194.004 236.989 194.004ZM268.83 202.72C266.237 202.72 263.86 202.072 261.699 200.775C259.586 199.431 257.881 197.678 256.585 195.517C255.336 193.308 254.712 190.883 254.712 188.242V184.928C254.712 184.688 254.832 184.568 255.072 184.568H263.14C263.332 184.568 263.428 184.688 263.428 184.928V188.242C263.428 189.826 263.956 191.195 265.013 192.347C266.069 193.452 267.342 194.004 268.83 194.004C270.319 194.004 271.592 193.428 272.648 192.275C273.705 191.123 274.233 189.778 274.233 188.242C274.233 186.465 273.08 184.928 270.775 183.631C270.007 183.199 268.806 182.527 267.174 181.614C265.541 180.702 264.004 179.838 262.563 179.021C259.922 177.484 257.953 175.564 256.657 173.258C255.408 170.905 254.784 168.264 254.784 165.335C254.784 162.645 255.432 160.244 256.729 158.131C258.025 155.97 259.73 154.266 261.843 153.017C264.004 151.768 266.333 151.144 268.83 151.144C271.376 151.144 273.705 151.792 275.818 153.089C277.979 154.338 279.683 156.042 280.932 158.203C282.229 160.316 282.877 162.694 282.877 165.335V171.242C282.877 171.434 282.781 171.53 282.589 171.53H274.521C274.329 171.53 274.233 171.434 274.233 171.242L274.161 165.335C274.161 163.654 273.633 162.285 272.576 161.229C271.52 160.172 270.271 159.644 268.83 159.644C267.342 159.644 266.069 160.22 265.013 161.373C263.956 162.477 263.428 163.798 263.428 165.335C263.428 166.919 263.764 168.24 264.436 169.297C265.109 170.353 266.333 171.362 268.11 172.322C268.35 172.466 268.806 172.73 269.479 173.114C270.199 173.451 270.967 173.859 271.784 174.339C272.6 174.771 273.32 175.155 273.945 175.492C274.617 175.828 275.025 176.044 275.169 176.14C277.57 177.484 279.467 179.141 280.86 181.11C282.253 183.031 282.949 185.408 282.949 188.242C282.949 190.979 282.301 193.452 281.004 195.661C279.756 197.822 278.051 199.551 275.89 200.847C273.777 202.096 271.424 202.72 268.83 202.72Z" fill="#EDEDED"/>
</svg>
