<svg width="229" height="212" viewBox="0 0 229 212" fill="none" xmlns="http://www.w3.org/2000/svg">
<path d="M60.4703 48.6109L48.7967 79.5H180.203L168.53 48.6109C166.517 43.3109 161.105 39.75 155.022 39.75H73.9777C67.8949 39.75 62.483 43.3109 60.4703 48.6109ZM17.7117 81.4875L33.4555 39.8742C39.4936 23.9328 55.7293 13.25 73.9777 13.25H155.022C173.271 13.25 189.506 23.9328 195.545 39.8742L211.288 81.4875C221.665 85.4625 229 94.9445 229 106V165.625V185.5C229 192.829 222.604 198.75 214.688 198.75H200.375C192.458 198.75 186.062 192.829 186.062 185.5V165.625H42.9375V185.5C42.9375 192.829 36.5416 198.75 28.625 198.75H14.3125C6.3959 198.75 0 192.829 0 185.5V165.625V106C0 94.9445 7.33516 85.4625 17.7117 81.4875ZM57.25 119.25C57.25 115.736 55.7421 112.366 53.058 109.881C50.3739 107.396 46.7334 106 42.9375 106C39.1416 106 35.5011 107.396 32.817 109.881C30.1329 112.366 28.625 115.736 28.625 119.25C28.625 122.764 30.1329 126.134 32.817 128.619C35.5011 131.104 39.1416 132.5 42.9375 132.5C46.7334 132.5 50.3739 131.104 53.058 128.619C55.7421 126.134 57.25 122.764 57.25 119.25ZM186.062 132.5C189.858 132.5 193.499 131.104 196.183 128.619C198.867 126.134 200.375 122.764 200.375 119.25C200.375 115.736 198.867 112.366 196.183 109.881C193.499 107.396 189.858 106 186.062 106C182.267 106 178.626 107.396 175.942 109.881C173.258 112.366 171.75 115.736 171.75 119.25C171.75 122.764 173.258 126.134 175.942 128.619C178.626 131.104 182.267 132.5 186.062 132.5Z" fill="white"/>
</svg>
