<svg width="79" height="73" viewBox="0 0 79 73" fill="none" xmlns="http://www.w3.org/2000/svg">
<path d="M20.8609 16.7387L16.8338 27.375H62.1662L58.1391 16.7387C57.4447 14.9137 55.5777 13.6875 53.4793 13.6875H25.5207C23.4223 13.6875 21.5553 14.9137 20.8609 16.7387ZM6.11016 28.0594L11.5414 13.7303C13.6244 8.24102 19.2254 4.5625 25.5207 4.5625H53.4793C59.7746 4.5625 65.3756 8.24102 67.4586 13.7303L72.8898 28.0594C76.4695 29.4281 79 32.6932 79 36.5V57.0312V63.875C79 66.3986 76.7936 68.4375 74.0625 68.4375H69.125C66.3939 68.4375 64.1875 66.3986 64.1875 63.875V57.0312H14.8125V63.875C14.8125 66.3986 12.6061 68.4375 9.875 68.4375H4.9375C2.20645 68.4375 0 66.3986 0 63.875V57.0312V36.5C0 32.6932 2.53047 29.4281 6.11016 28.0594ZM19.75 41.0625C19.75 39.8525 19.2298 38.692 18.3038 37.8363C17.3779 36.9807 16.122 36.5 14.8125 36.5C13.503 36.5 12.2471 36.9807 11.3212 37.8363C10.3952 38.692 9.875 39.8525 9.875 41.0625C9.875 42.2725 10.3952 43.433 11.3212 44.2887C12.2471 45.1443 13.503 45.625 14.8125 45.625C16.122 45.625 17.3779 45.1443 18.3038 44.2887C19.2298 43.433 19.75 42.2725 19.75 41.0625ZM64.1875 45.625C65.497 45.625 66.7529 45.1443 67.6788 44.2887C68.6048 43.433 69.125 42.2725 69.125 41.0625C69.125 39.8525 68.6048 38.692 67.6788 37.8363C66.7529 36.9807 65.497 36.5 64.1875 36.5C62.878 36.5 61.6221 36.9807 60.6962 37.8363C59.7702 38.692 59.25 39.8525 59.25 41.0625C59.25 42.2725 59.7702 43.433 60.6962 44.2887C61.6221 45.1443 62.878 45.625 64.1875 45.625Z" fill="black"/>
</svg>
