<svg width="86" height="82" viewBox="0 0 86 82" fill="none" xmlns="http://www.w3.org/2000/svg">
<path d="M80.2939 40.7164C80.2939 60.2264 63.6596 76.4329 42.647 76.4329C21.6343 76.4329 5 60.2264 5 40.7164C5 21.2065 21.6343 5 42.647 5C63.6596 5 80.2939 21.2065 80.2939 40.7164Z" fill="white" stroke="black" stroke-width="10"/>
<g clip-path="url(#clip0_205_24)">
<path d="M42.4715 40.5407C46.4079 40.5407 50.1832 38.9783 52.9667 36.1971C55.7502 33.416 57.3139 29.6439 57.3139 25.7108C57.3139 21.7776 55.7502 18.0056 52.9667 15.2244C50.1832 12.4433 46.4079 10.8809 42.4715 10.8809C38.535 10.8809 34.7598 12.4433 31.9763 15.2244C29.1928 18.0056 27.629 21.7776 27.629 25.7108C27.629 29.6439 29.1928 33.416 31.9763 36.1971C34.7598 38.9783 38.535 40.5407 42.4715 40.5407ZM37.1723 46.1019C25.7505 46.1019 16.4972 55.3474 16.4972 66.7595C16.4972 68.6596 18.0394 70.2005 19.9411 70.2005H65.0019C66.9035 70.2005 68.4458 68.6596 68.4458 66.7595C68.4458 55.3474 59.1924 46.1019 47.7707 46.1019H37.1723Z" fill="black"/>
</g>
<defs>
<clipPath id="clip0_205_24">
<rect width="51.9486" height="59.3197" fill="white" transform="translate(16.4972 10.8809)"/>
</clipPath>
</defs>
</svg>
