<svg width="177" height="254" viewBox="0 0 177 254" fill="none" xmlns="http://www.w3.org/2000/svg">
<g clip-path="url(#clip0_116_32)">
<path d="M88.5 23.8125C88.5 17.497 91.2972 11.4402 96.2763 6.97452C101.255 2.50881 108.009 0 115.05 0C122.092 0 128.845 2.50881 133.824 6.97452C138.803 11.4402 141.6 17.497 141.6 23.8125C141.6 30.128 138.803 36.1848 133.824 40.6505C128.845 45.1162 122.092 47.625 115.05 47.625C108.009 47.625 101.255 45.1162 96.2763 40.6505C91.2972 36.1848 88.5 30.128 88.5 23.8125ZM69.9703 98.8715C69.4172 99.0699 68.9194 99.2684 68.3663 99.4668L63.9413 101.203C54.87 104.825 47.9006 111.72 44.7478 120.154L43.3097 124.023C40.2122 132.358 30.2006 136.823 20.9081 134.045C11.6156 131.266 6.63751 122.287 9.73501 113.953L11.1731 110.083C17.4788 93.1664 31.4175 79.375 49.56 72.132L53.985 70.3957C65.49 65.8316 77.9353 63.4504 90.5466 63.4504C115.216 63.4504 137.452 76.7457 146.91 97.1352L155.428 115.441L167.265 120.749C176.004 124.668 179.544 134.193 175.175 142.032C170.805 149.87 160.185 153.045 151.446 149.126L136.622 142.528C130.925 139.948 126.444 135.682 124.011 130.373L118.701 118.963L108.025 151.457L135.405 178.246C138.392 181.173 140.494 184.696 141.6 188.565L154.322 234.255C156.7 242.739 150.948 251.371 141.434 253.504C131.92 255.637 122.351 250.478 119.973 241.945L107.804 198.239L68.6981 159.99C60.5119 152.003 57.4697 140.841 60.5672 130.373L69.915 98.8715H69.9703ZM37.9997 197.445L51.8278 166.489C52.9894 167.977 54.3169 169.366 55.6997 170.755L78.2119 192.782L70.1916 210.741C68.8641 213.717 66.8728 216.446 64.3285 218.728L30.2006 249.337C23.2866 255.538 12.0581 255.538 5.14407 249.337C-1.76999 243.136 -1.76999 233.065 5.14407 226.864L37.9997 197.445Z" fill="white"/>
</g>
<defs>
<clipPath id="clip0_116_32">
<rect width="177" height="254" fill="white"/>
</clipPath>
</defs>
</svg>
